<svg width="1456" height="350" viewBox="0 0 1456 350" fill="none" xmlns="http://www.w3.org/2000/svg">
<mask id="mask0_280_2045" style="mask-type:alpha" maskUnits="userSpaceOnUse" x="57" y="0" width="1210" height="140">
<path d="M130.28 42.24H109.32C109.213 36.48 107.72 32.48 104.84 30.24C102.067 27.8933 98.7067 26.72 94.76 26.72C90.4933 26.72 87.1333 27.6267 84.68 29.44C82.3333 31.2533 81.16 33.6533 81.16 36.64C81.16 41.5467 83.8267 45.0667 89.16 47.2C94.4933 49.2267 100.36 51.4133 106.76 53.76C113.16 56.1067 119.027 59.36 124.36 63.52C129.693 67.68 132.36 74.24 132.36 83.2C132.36 92.6933 128.947 100.267 122.12 105.92C115.4 111.573 106.76 114.4 96.2 114.4C90.76 114.4 85.64 113.6 80.84 112C76.1467 110.507 72.04 108.32 68.52 105.44C65.1067 102.453 62.3867 98.8267 60.36 94.56C58.3333 90.1867 57.2667 85.2267 57.16 79.68H78.76C79.1867 85.3333 80.8933 89.6 83.88 92.48C86.8667 95.2533 90.9733 96.64 96.2 96.64C100.787 96.64 104.467 95.6267 107.24 93.6C110.013 91.5733 111.4 88.8 111.4 85.28C111.4 80.2667 108.733 76.64 103.4 74.4C98.0667 72.0533 92.2 69.6533 85.8 67.2C79.5067 64.7467 73.6933 61.44 68.36 57.28C63.0267 53.12 60.36 46.6667 60.36 37.92C60.36 29.28 63.5067 22.2933 69.8 16.96C76.2 11.6267 84.52 8.95999 94.76 8.95999C105.213 8.95999 113.693 11.84 120.2 17.6C126.813 23.2533 130.173 31.4667 130.28 42.24ZM166.015 43.04V81.28C166.015 86.1867 166.975 89.92 168.895 92.48C170.815 95.04 173.588 96.32 177.215 96.32C180.842 96.32 183.828 94.7733 186.175 91.68C188.628 88.48 189.855 83.68 189.855 77.28V43.04H210.975V112H189.855V101.6C187.508 105.867 184.468 109.067 180.735 111.2C177.108 113.333 173.215 114.4 169.055 114.4C161.908 114.4 156.095 112.053 151.615 107.36C147.135 102.56 144.895 95.7867 144.895 87.04V43.04H166.015ZM228.203 140V43.04H249.323V53.28C251.989 49.0133 255.403 45.8667 259.562 43.84C263.723 41.7067 268.149 40.64 272.843 40.64C276.789 40.64 280.576 41.44 284.203 43.04C287.936 44.64 291.189 47.04 293.963 50.24C296.843 53.3333 299.136 57.1733 300.843 61.76C302.549 66.3467 303.403 71.5733 303.403 77.44C303.403 83.4133 302.549 88.6933 300.843 93.28C299.136 97.8667 296.843 101.76 293.963 104.96C291.189 108.053 287.936 110.4 284.203 112C280.576 113.6 276.789 114.4 272.843 114.4C268.149 114.4 263.723 113.387 259.562 111.36C255.403 109.227 251.989 106.027 249.323 101.76V140H228.203ZM265.803 96.8C270.923 96.8 274.923 94.9333 277.803 91.2C280.683 87.4667 282.123 82.88 282.123 77.44C282.123 72 280.683 67.4667 277.803 63.84C274.923 60.1067 270.923 58.24 265.803 58.24C260.896 58.24 256.843 59.9467 253.643 63.36C250.549 66.7733 249.003 71.4667 249.003 77.44C249.003 83.52 250.549 88.2667 253.643 91.68C256.843 95.0933 260.896 96.8 265.803 96.8ZM316.953 112V43.04H338.073V57.12C340.419 51.68 343.673 47.5733 347.833 44.8C352.099 42.0267 356.846 40.64 362.073 40.64C363.246 40.64 364.366 40.7467 365.433 40.96C366.499 41.0667 367.406 41.1733 368.153 41.28V62.56C366.233 62.24 364.366 61.9733 362.553 61.76C360.846 61.5467 358.979 61.44 356.953 61.44C349.806 61.44 344.846 63.04 342.073 66.24C339.406 69.44 338.073 74.24 338.073 80.64V112H316.953ZM411.471 114.4C406.031 114.4 401.018 113.493 396.431 111.68C391.951 109.867 388.058 107.36 384.751 104.16C381.551 100.853 379.045 96.9067 377.231 92.32C375.525 87.7333 374.671 82.7733 374.671 77.44C374.671 72.1067 375.578 67.2 377.391 62.72C379.205 58.1333 381.711 54.24 384.911 51.04C388.218 47.7333 392.111 45.1733 396.591 43.36C401.071 41.5467 405.978 40.64 411.311 40.64C422.298 40.64 430.991 43.8933 437.391 50.4C443.791 56.9067 446.991 65.28 446.991 75.52C446.991 76.8 446.938 78.0267 446.831 79.2C446.831 80.2667 446.778 81.3867 446.671 82.56H395.631C396.378 88 398.138 92 400.911 94.56C403.685 97.0133 407.205 98.24 411.471 98.24C415.311 98.24 418.351 97.44 420.591 95.84C422.831 94.24 424.325 92.16 425.071 89.6H446.031C444.325 97.6 440.218 103.733 433.711 108C427.311 112.267 419.898 114.4 411.471 114.4ZM411.151 56.96C406.991 56.96 403.525 57.9733 400.751 60C398.085 62.0267 396.378 65.28 395.631 69.76H426.191C425.765 65.4933 424.218 62.2933 421.551 60.16C418.885 58.0267 415.418 56.96 411.151 56.96ZM460.234 112V43.04H481.354V53.12C483.7 48.96 486.687 45.8667 490.314 43.84C493.94 41.7067 497.887 40.64 502.154 40.64C507.487 40.64 512.127 41.9733 516.074 44.64C520.127 47.3067 523.167 51.0933 525.194 56C527.22 51.0933 530.314 47.3067 534.474 44.64C538.634 41.9733 543.38 40.64 548.714 40.64C556.394 40.64 562.58 43.36 567.274 48.8C572.074 54.1333 574.474 61.76 574.474 71.68V112H553.514V74.24C553.514 69.0133 552.447 65.0667 550.314 62.4C548.287 59.6267 545.3 58.24 541.354 58.24C537.407 58.24 534.154 59.6267 531.594 62.4C529.14 65.0667 527.914 69.7067 527.914 76.32V112H506.794V74.24C506.794 69.0133 505.78 65.0667 503.754 62.4C501.727 59.6267 498.74 58.24 494.794 58.24C490.847 58.24 487.594 59.6267 485.034 62.4C482.58 65.0667 481.354 69.7067 481.354 76.32V112H460.234ZM623.503 114.4C618.063 114.4 613.049 113.493 608.463 111.68C603.983 109.867 600.089 107.36 596.783 104.16C593.583 100.853 591.076 96.9067 589.263 92.32C587.556 87.7333 586.703 82.7733 586.703 77.44C586.703 72.1067 587.609 67.2 589.423 62.72C591.236 58.1333 593.743 54.24 596.943 51.04C600.249 47.7333 604.143 45.1733 608.623 43.36C613.103 41.5467 618.009 40.64 623.343 40.64C634.329 40.64 643.023 43.8933 649.423 50.4C655.823 56.9067 659.023 65.28 659.023 75.52C659.023 76.8 658.969 78.0267 658.863 79.2C658.863 80.2667 658.809 81.3867 658.703 82.56H607.663C608.409 88 610.169 92 612.943 94.56C615.716 97.0133 619.236 98.24 623.503 98.24C627.343 98.24 630.383 97.44 632.623 95.84C634.863 94.24 636.356 92.16 637.103 89.6H658.063C656.356 97.6 652.249 103.733 645.743 108C639.343 112.267 631.929 114.4 623.503 114.4ZM623.182 56.96C619.023 56.96 615.556 57.9733 612.783 60C610.116 62.0267 608.409 65.28 607.663 69.76H638.223C637.796 65.4933 636.249 62.2933 633.583 60.16C630.916 58.0267 627.449 56.96 623.182 56.96ZM773.175 73.12H794.775C793.388 80.9067 791.095 87.4667 787.895 92.8C784.695 98.0267 780.962 102.24 776.695 105.44C772.428 108.64 767.682 110.933 762.455 112.32C757.228 113.707 751.948 114.4 746.615 114.4C739.255 114.4 732.482 113.067 726.295 110.4C720.108 107.733 714.775 104.107 710.295 99.52C705.815 94.8267 702.295 89.2267 699.735 82.72C697.282 76.2133 696.055 69.1733 696.055 61.6C696.055 53.92 697.282 46.88 699.735 40.48C702.188 33.9733 705.602 28.3733 709.975 23.68C714.348 18.9867 719.628 15.36 725.815 12.8C732.108 10.1333 739.042 8.79999 746.615 8.79999C751.948 8.79999 757.228 9.54666 762.455 11.04C767.682 12.4267 772.428 14.7733 776.695 18.08C781.068 21.28 784.855 25.5467 788.055 30.88C791.255 36.1067 793.495 42.5067 794.775 50.08H773.015C771.735 43.04 768.802 37.6533 764.215 33.92C759.628 30.08 753.655 28.16 746.295 28.16C737.655 28.16 730.668 31.3067 725.335 37.6C720.002 43.7867 717.335 51.7867 717.335 61.6C717.335 71.4133 720.002 79.4667 725.335 85.76C730.668 91.9467 737.655 95.04 746.295 95.04C753.655 95.04 759.628 93.1733 764.215 89.44C768.908 85.6 771.895 80.16 773.175 73.12ZM840.865 114.4C835.638 114.4 830.732 113.493 826.145 111.68C821.558 109.867 817.558 107.36 814.145 104.16C810.838 100.96 808.172 97.0667 806.145 92.48C804.225 87.8933 803.265 82.88 803.265 77.44C803.265 72 804.278 67.04 806.305 62.56C808.332 57.9733 810.998 54.08 814.305 50.88C817.718 47.68 821.718 45.1733 826.305 43.36C830.892 41.5467 835.745 40.64 840.865 40.64C845.985 40.64 850.838 41.5467 855.425 43.36C860.012 45.1733 864.012 47.68 867.425 50.88C870.838 54.08 873.558 57.9733 875.585 62.56C877.612 67.04 878.625 72 878.625 77.44C878.625 82.88 877.612 87.8933 875.585 92.48C873.665 97.0667 870.998 100.96 867.585 104.16C864.172 107.36 860.172 109.867 855.585 111.68C850.998 113.493 846.092 114.4 840.865 114.4ZM840.865 96.32C845.985 96.32 849.985 94.6133 852.865 91.2C855.852 87.7867 857.345 83.2 857.345 77.44C857.345 71.7867 855.852 67.2533 852.865 63.84C849.878 60.4267 845.878 58.72 840.865 58.72C835.958 58.72 831.958 60.4267 828.865 63.84C825.878 67.2533 824.385 71.7867 824.385 77.44C824.385 83.2 825.825 87.7867 828.705 91.2C831.692 94.6133 835.745 96.32 840.865 96.32ZM911.796 43.04V81.28C911.796 86.1867 912.756 89.92 914.676 92.48C916.596 95.04 919.37 96.32 922.996 96.32C926.623 96.32 929.61 94.7733 931.956 91.68C934.41 88.48 935.636 83.68 935.636 77.28V43.04H956.756V112H935.636V101.6C933.29 105.867 930.25 109.067 926.516 111.2C922.89 113.333 918.996 114.4 914.836 114.4C907.69 114.4 901.876 112.053 897.396 107.36C892.916 102.56 890.676 95.7867 890.676 87.04V43.04H911.796ZM973.984 112V43.04H995.104V57.12C997.45 51.68 1000.7 47.5733 1004.86 44.8C1009.13 42.0267 1013.88 40.64 1019.1 40.64C1020.28 40.64 1021.4 40.7467 1022.46 40.96C1023.53 41.0667 1024.44 41.1733 1025.18 41.28V62.56C1023.26 62.24 1021.4 61.9733 1019.58 61.76C1017.88 61.5467 1016.01 61.44 1013.98 61.44C1006.84 61.44 1001.88 63.04 999.104 66.24C996.437 69.44 995.104 74.24 995.104 80.64V112H973.984ZM1028.02 59.84V43.04H1043.86V15.84H1064.82V43.04H1086.42V59.84H1064.82V85.28C1064.82 89.2267 1065.68 91.9467 1067.38 93.44C1069.2 94.9333 1071.92 95.68 1075.54 95.68C1077.36 95.68 1079.17 95.52 1080.98 95.2C1082.9 94.88 1084.72 94.6133 1086.42 94.4V112.96C1084.08 113.387 1081.62 113.707 1079.06 113.92C1076.5 114.24 1074.05 114.4 1071.7 114.4C1062.42 114.4 1055.44 112.267 1050.74 108C1046.16 103.733 1043.86 96.7467 1043.86 87.04V59.84H1028.02ZM1162.58 114.4C1157.36 114.4 1152.45 113.493 1147.86 111.68C1143.28 109.867 1139.28 107.36 1135.86 104.16C1132.56 100.96 1129.89 97.0667 1127.86 92.48C1125.94 87.8933 1124.98 82.88 1124.98 77.44C1124.98 72 1126 67.04 1128.02 62.56C1130.05 57.9733 1132.72 54.08 1136.02 50.88C1139.44 47.68 1143.44 45.1733 1148.02 43.36C1152.61 41.5467 1157.46 40.64 1162.58 40.64C1167.7 40.64 1172.56 41.5467 1177.14 43.36C1181.73 45.1733 1185.73 47.68 1189.14 50.88C1192.56 54.08 1195.28 57.9733 1197.3 62.56C1199.33 67.04 1200.34 72 1200.34 77.44C1200.34 82.88 1199.33 87.8933 1197.3 92.48C1195.38 97.0667 1192.72 100.96 1189.3 104.16C1185.89 107.36 1181.89 109.867 1177.3 111.68C1172.72 113.493 1167.81 114.4 1162.58 114.4ZM1162.58 96.32C1167.7 96.32 1171.7 94.6133 1174.58 91.2C1177.57 87.7867 1179.06 83.2 1179.06 77.44C1179.06 71.7867 1177.57 67.2533 1174.58 63.84C1171.6 60.4267 1167.6 58.72 1162.58 58.72C1157.68 58.72 1153.68 60.4267 1150.58 63.84C1147.6 67.2533 1146.1 71.7867 1146.1 77.44C1146.1 83.2 1147.54 87.7867 1150.42 91.2C1153.41 94.6133 1157.46 96.32 1162.58 96.32ZM1208.08 59.84V43.04H1224.08V31.84C1224.08 21.92 1226.74 14.2933 1232.08 8.95999C1237.41 3.51999 1245.09 0.799992 1255.12 0.799992C1257.57 0.799992 1259.81 1.01333 1261.84 1.43999C1263.86 1.76 1265.57 2.13333 1266.96 2.56V20.32C1265.25 19.8933 1263.44 19.5733 1261.52 19.36C1259.7 19.1467 1258.1 19.04 1256.72 19.04C1252.45 19.04 1249.41 20.1067 1247.6 22.24C1245.89 24.3733 1245.04 27.9467 1245.04 32.96V43.04H1266.16V59.84H1245.04V112H1224.08V59.84H1208.08Z" fill="white"/>
</mask>
<g mask="url(#mask0_280_2045)">
<path d="M44 137.5L41 -19H1365.5L1402 140L347.5 156L191.5 90L79.5 137.5H44Z" fill="#D9D9D9"/>
</g>
<rect y="343" width="383" height="7" fill="#D9D9D9"/>
<mask id="mask1_280_2045" style="mask-type:alpha" maskUnits="userSpaceOnUse" x="27" y="333" width="328" height="7">
<rect x="27" y="333" width="328" height="7" fill="#D9D9D9"/>
</mask>
<g mask="url(#mask1_280_2045)">
<path d="M339 338.5V332H19V342H339V338.5Z" fill="#D9D9D9"/>
</g>
<rect x="48" y="323" width="287" height="7" fill="#D9D9D9"/>
<path fill-rule="evenodd" clip-rule="evenodd" d="M67.5 193.5V200.5H74V314H67.5V320.5H109V314H102.5V200.5H109V193.5H67.5ZM97 200H96V314H97V200ZM79 200H80V314H79V200ZM89 200H87V314H89V200Z" fill="#D9D9D9"/>
<mask id="mask2_280_2045" style="mask-type:alpha" maskUnits="userSpaceOnUse" x="296" y="193" width="22" height="127">
<path fill-rule="evenodd" clip-rule="evenodd" d="M296 193V199.5V200V313.5V320H317.5V313.5H311V200H317.5V193H296ZM305.5 199.5H304.5V313.5H305.5V199.5Z" fill="#D9D9D9"/>
</mask>
<g mask="url(#mask2_280_2045)">
<path d="M318 320H296V269.013C296 258.43 301.5 243 318 243V320Z" fill="#D9D9D9"/>
<path d="M295.5 222V193H323V205.5C310 208 303.228 210.2 295.5 222Z" fill="#D9D9D9"/>
</g>
<path fill-rule="evenodd" clip-rule="evenodd" d="M137 194V201H143.5V314.5H137V321H178.5V314.5H172V201H178.5V194H137ZM166.5 200.5H165.5V314.5H166.5V200.5ZM148.5 200.5H149.5V314.5H148.5V200.5ZM158.5 200.5H156.5V314.5H158.5V200.5Z" fill="#D9D9D9"/>
<path fill-rule="evenodd" clip-rule="evenodd" d="M206 194V201H212.5V314.5H206V321H247.5V314.5H241V201H247.5V194H206ZM235.5 200.5H234.5V314.5H235.5V200.5ZM217.5 200.5H218.5V314.5H217.5V200.5ZM227.5 200.5H225.5V314.5H227.5V200.5Z" fill="#D9D9D9"/>
<mask id="mask3_280_2045" style="mask-type:alpha" maskUnits="userSpaceOnUse" x="53" y="175" width="277" height="15">
<rect x="53" y="175" width="277" height="15" fill="#D9D9D9"/>
</mask>
<g mask="url(#mask3_280_2045)">
<path d="M19 191H250V133H296V191.5L371 191L375 66.5L16 68.5L19 191Z" fill="#D9D9D9"/>
</g>
<mask id="mask4_280_2045" style="mask-type:alpha" maskUnits="userSpaceOnUse" x="36" y="92" width="311" height="80">
<path d="M345 170.5H38V159.989L191.5 94.1322L345 159.989V170.5Z" stroke="#D9D9D9" stroke-width="3"/>
</mask>
<g mask="url(#mask4_280_2045)">
<path d="M19 191H250V133H296V191.5L371 191L375 66.5L16 68.5L19 191Z" fill="#D9D9D9"/>
</g>
<mask id="mask5_280_2045" style="mask-type:alpha" maskUnits="userSpaceOnUse" x="43" y="100" width="297" height="66">
<path fill-rule="evenodd" clip-rule="evenodd" d="M43.5 163V165.5H339.5V163L191.5 100L43.5 162.5V163ZM172.605 127.175L184.73 132.525V129.6L176.38 126.175L184.73 122.3V119.375L172.605 125.425V127.175ZM189.386 135L196.036 117.15H192.661L186.011 135H189.386ZM205.589 126.175L197.239 129.6V132.525L209.364 127.175V125.425L197.239 119.375V122.3L205.589 126.175Z" fill="#D9D9D9"/>
</mask>
<g mask="url(#mask5_280_2045)">
<path d="M19 191H250V133H296V191.5L371 191L375 66.5L16 68.5L19 191Z" fill="#D9D9D9"/>
</g>
<path fill-rule="evenodd" clip-rule="evenodd" d="M253.2 136V320H292.8L292.8 271.9C292.8 260.7 295.3 252.5 300.3 247.3C305.3 241.9 311.8 239.2 319.8 239.2C327.4 239.2 333.1 241.8 336.9 247C340.7 252 342.6 259.4 342.6 269.2V340H382.2V264.4C382.2 246.2 377.8 232 369 221.8C360.2 211.4 348.4 206.2 333.6 206.2C324.8 206.2 316.9 208.3 309.9 212.5C302.9 216.7 297.2 222.8 292.8 230.8V136H253.2ZM410.475 245.8C407.275 254.4 405.675 264.2 405.675 275.2C405.675 286.4 407.275 296.3 410.475 304.9C413.675 313.5 417.875 320.8 423.075 326.8C428.475 332.6 434.675 337 441.675 340C448.675 343 455.875 344.5 463.275 344.5C471.875 344.5 480.075 342.6 487.875 338.8C495.675 334.8 502.075 328.8 507.075 320.8V340H546.675V210.7H507.075V229.9C502.075 221.9 495.675 216 487.875 212.2C480.075 208.2 471.875 206.2 463.275 206.2C455.875 206.2 448.675 207.7 441.675 210.7C434.675 213.7 428.475 218.2 423.075 224.2C417.875 230 413.675 237.2 410.475 245.8ZM453.375 249.7C458.775 242.7 466.375 239.2 476.175 239.2C485.375 239.2 492.875 242.4 498.675 248.8C504.675 255 507.675 263.8 507.675 275.2C507.675 286.6 504.675 295.5 498.675 301.9C492.875 308.3 485.375 311.5 476.175 311.5C466.375 311.5 458.775 308 453.375 301C447.975 294 445.275 285.4 445.275 275.2C445.275 265 447.975 256.5 453.375 249.7ZM619.781 303.4C614.181 297 611.381 287.6 611.381 275.2C611.381 263 614.181 253.8 619.781 247.6C625.381 241.2 632.181 238 640.181 238C646.381 238 651.781 239.9 656.381 243.7C661.181 247.5 664.281 253.3 665.681 261.1H706.481C704.881 251.3 701.881 242.9 697.481 235.9C693.081 228.9 687.881 223.2 681.881 218.8C675.881 214.4 669.281 211.2 662.081 209.2C654.881 207.2 647.681 206.2 640.481 206.2C631.681 206.2 623.081 207.7 614.681 210.7C606.281 213.5 598.881 217.8 592.481 223.6C586.281 229.4 581.281 236.6 577.481 245.2C573.681 253.8 571.781 263.8 571.781 275.2C571.781 286.6 573.681 296.7 577.481 305.5C581.281 314.1 586.281 321.3 592.481 327.1C598.881 332.9 606.281 337.2 614.681 340C623.081 343 631.681 344.5 640.481 344.5C647.681 344.5 654.881 343.5 662.081 341.5C669.281 339.5 675.881 336.4 681.881 332.2C687.881 327.8 692.981 322.1 697.181 315.1C701.581 308.1 704.581 299.7 706.181 289.9H665.681C664.281 297.5 661.181 303.2 656.381 307C651.781 310.8 646.381 312.7 640.181 312.7C632.181 312.7 625.381 309.6 619.781 303.4ZM769.167 136H729.567V340H769.167V283L816.267 340H865.467L806.667 271.9L861.267 210.7H816.567L769.167 262.3V136ZM978.082 303.4C972.482 297 969.682 287.6 969.682 275.2C969.682 263 972.482 253.8 978.082 247.6C983.682 241.2 990.482 238 998.482 238C1004.68 238 1010.08 239.9 1014.68 243.7C1019.48 247.5 1022.58 253.3 1023.98 261.1H1064.78C1063.18 251.3 1060.18 242.9 1055.78 235.9C1051.38 228.9 1046.18 223.2 1040.18 218.8C1034.18 214.4 1027.58 211.2 1020.38 209.2C1013.18 207.2 1005.98 206.2 998.782 206.2C989.982 206.2 981.382 207.7 972.982 210.7C964.582 213.5 957.182 217.8 950.782 223.6C944.582 229.4 939.582 236.6 935.782 245.2C931.982 253.8 930.082 263.8 930.082 275.2C930.082 286.6 931.982 296.7 935.782 305.5C939.582 314.1 944.582 321.3 950.782 327.1C957.182 332.9 964.582 337.2 972.982 340C981.382 343 989.982 344.5 998.782 344.5C1005.98 344.5 1013.18 343.5 1020.38 341.5C1027.58 339.5 1034.18 336.4 1040.18 332.2C1046.18 327.8 1051.28 322.1 1055.48 315.1C1059.88 308.1 1062.88 299.7 1064.48 289.9H1023.98C1022.58 297.5 1019.48 303.2 1014.68 307C1010.08 310.8 1004.68 312.7 998.482 312.7C990.482 312.7 983.682 309.6 978.082 303.4ZM1127.47 136H1087.87V340H1127.47V136ZM1197.44 282.4V210.7H1157.84V293.2C1157.84 309.6 1162.04 322.3 1170.44 331.3C1178.84 340.1 1189.74 344.5 1203.14 344.5C1210.94 344.5 1218.24 342.5 1225.04 338.5C1232.04 334.5 1237.74 328.5 1242.14 320.5V340H1281.74V210.7H1242.14V274.9C1242.14 286.9 1239.84 295.9 1235.24 301.9C1230.84 307.7 1225.24 310.6 1218.44 310.6C1211.64 310.6 1206.44 308.2 1202.84 303.4C1199.24 298.6 1197.44 291.6 1197.44 282.4ZM1450.24 304.9C1453.44 296.3 1455.04 286.4 1455.04 275.2C1455.04 264.2 1453.44 254.4 1450.24 245.8C1447.04 237.2 1442.74 230 1437.34 224.2C1432.14 218.2 1426.04 213.7 1419.04 210.7C1412.24 207.7 1405.14 206.2 1397.74 206.2C1388.94 206.2 1380.64 208.2 1372.84 212.2C1365.04 216 1358.64 221.9 1353.64 229.9V136H1314.04V340H1353.64V320.8C1358.64 328.8 1365.04 334.8 1372.84 338.8C1380.64 342.6 1388.94 344.5 1397.74 344.5C1405.14 344.5 1412.24 343 1419.04 340C1426.04 337 1432.14 332.6 1437.34 326.8C1442.74 320.8 1447.04 313.5 1450.24 304.9ZM1361.74 248.8C1367.74 242.4 1375.34 239.2 1384.54 239.2C1394.14 239.2 1401.64 242.7 1407.04 249.7C1412.44 256.5 1415.14 265 1415.14 275.2C1415.14 285.4 1412.44 294 1407.04 301C1401.64 308 1394.14 311.5 1384.54 311.5C1375.34 311.5 1367.74 308.3 1361.74 301.9C1355.94 295.5 1353.04 286.6 1353.04 275.2C1353.04 264 1355.94 255.2 1361.74 248.8Z" fill="#EC3750"/>
</svg>
