<svg width="383" height="258" viewBox="0 0 383 258" fill="none" xmlns="http://www.w3.org/2000/svg">
<rect y="251" width="383" height="7" fill="#D9D9D9"/>
<mask id="mask0_280_2045" style="mask-type:alpha" maskUnits="userSpaceOnUse" x="27" y="241" width="328" height="7">
<rect x="27" y="241" width="328" height="7" fill="#D9D9D9"/>
</mask>
<g mask="url(#mask0_280_2045)">
<path d="M339 246.5V240H19V250H339V246.5Z" fill="#D9D9D9"/>
</g>
<rect x="48" y="231" width="287" height="7" fill="#D9D9D9"/>
<path fill-rule="evenodd" clip-rule="evenodd" d="M67.5 101.5V108.5H74V222H67.5V228.5H109V222H102.5V108.5H109V101.5H67.5ZM97 108H96V222H97V108ZM79 108H80V222H79V108ZM89 108H87V222H89V108Z" fill="#D9D9D9"/>
<mask id="mask1_280_2045" style="mask-type:alpha" maskUnits="userSpaceOnUse" x="296" y="101" width="22" height="127">
<path fill-rule="evenodd" clip-rule="evenodd" d="M296 101V107.5V108V221.5V228H317.5V221.5H311V108H317.5V101H296ZM305.5 107.5H304.5V221.5H305.5V107.5Z" fill="#D9D9D9"/>
</mask>
<g mask="url(#mask1_280_2045)">
<path d="M318 228H296V177.013C296 166.43 301.5 151 318 151V228Z" fill="#D9D9D9"/>
<path d="M295.5 130V101H323V113.5C310 116 303.228 118.2 295.5 130Z" fill="#D9D9D9"/>
</g>
<path fill-rule="evenodd" clip-rule="evenodd" d="M137 102V109H143.5V222.5H137V229H178.5V222.5H172V109H178.5V102H137ZM166.5 108.5H165.5V222.5H166.5V108.5ZM148.5 108.5H149.5V222.5H148.5V108.5ZM158.5 108.5H156.5V222.5H158.5V108.5Z" fill="#D9D9D9"/>
<path fill-rule="evenodd" clip-rule="evenodd" d="M206 102V109H212.5V222.5H206V229H247.5V222.5H241V109H247.5V102H206ZM235.5 108.5H234.5V222.5H235.5V108.5ZM217.5 108.5H218.5V222.5H217.5V108.5ZM227.5 108.5H225.5V222.5H227.5V108.5Z" fill="#D9D9D9"/>
<mask id="mask2_280_2045" style="mask-type:alpha" maskUnits="userSpaceOnUse" x="53" y="83" width="277" height="15">
<rect x="53" y="83" width="277" height="15" fill="#D9D9D9"/>
</mask>
<g mask="url(#mask2_280_2045)">
<path d="M19 99H250V41H296V99.5L371 99L375 -25.5L16 -23.5L19 99Z" fill="#D9D9D9"/>
</g>
<mask id="mask3_280_2045" style="mask-type:alpha" maskUnits="userSpaceOnUse" x="36" y="0" width="311" height="80">
<path d="M345 78.5H38V67.9887L191.5 2.13222L345 67.9887V78.5Z" stroke="#D9D9D9" stroke-width="3"/>
</mask>
<g mask="url(#mask3_280_2045)">
<path d="M19 99H250V41H296V99.5L371 99L375 -25.5L16 -23.5L19 99Z" fill="#D9D9D9"/>
</g>
<mask id="mask4_280_2045" style="mask-type:alpha" maskUnits="userSpaceOnUse" x="43" y="8" width="297" height="66">
<path fill-rule="evenodd" clip-rule="evenodd" d="M43.5 71V73.5H339.5V71L191.5 8L43.5 70.5V71ZM172.605 35.175L184.73 40.525V37.6L176.38 34.175L184.73 30.3V27.375L172.605 33.425V35.175ZM189.386 43L196.036 25.15H192.661L186.011 43H189.386ZM205.589 34.175L197.239 37.6V40.525L209.364 35.175V33.425L197.239 27.375V30.3L205.589 34.175Z" fill="#D9D9D9"/>
</mask>
<g mask="url(#mask4_280_2045)">
<path d="M19 99H250V41H296V99.5L371 99L375 -25.5L16 -23.5L19 99Z" fill="#D9D9D9"/>
</g>
<path fill-rule="evenodd" clip-rule="evenodd" d="M253.2 44V228H292.8L292.8 179.9C292.8 168.7 295.3 160.5 300.3 155.3C305.3 149.9 311.8 147.2 319.8 147.2C327.4 147.2 333.1 149.8 336.9 155C340.7 160 342.6 167.4 342.6 177.2V248H382.2V172.4C382.2 154.2 377.8 140 369 129.8C360.2 119.4 348.4 114.2 333.6 114.2C324.8 114.2 316.9 116.3 309.9 120.5C302.9 124.7 297.2 130.8 292.8 138.8V44H253.2Z" fill="#EC3750"/>
</svg>
