<svg width="655" height="396" viewBox="0 0 655 396" fill="none" xmlns="http://www.w3.org/2000/svg">
<path fill-rule="evenodd" clip-rule="evenodd" d="M440 0V340L440 274.838C453.326 291.803 473.945 303.087 506 318L506 226.5C506 207.833 510.167 194.167 518.5 185.5C526.833 176.5 537.667 172 551 172C563.667 172 573.167 176.333 579.5 185C585.833 193.333 589 205.667 589 222V340H655V214C655 183.667 647.667 160 633 143C618.333 125.667 598.667 117 574 117C559.333 117 546.167 120.5 534.5 127.5C522.833 134.5 513.333 144.667 506 158V0H440Z" fill="#EC3750"/>
<path fill-rule="evenodd" clip-rule="evenodd" d="M550.199 384.183C274.096 338.705 -76.632 93.8028 194.961 96.5116C-348.39 49.5863 400.707 384.183 550.199 384.183ZM604.141 384.183C376.011 345.311 89.8733 136.331 314.276 138.646C-134.667 98.5366 480.623 384.183 604.141 384.183ZM655 384.183C468.136 351.084 233.757 173.141 417.568 175.112C49.8332 140.959 553.825 384.183 655 384.183ZM0.772955 145.897L4.1664 154.083C2.79332 151.341 1.65813 148.612 0.772955 145.897ZM4.1664 154.083L70.8964 315.043C154.161 435.091 576 384.5 534 388.5C493.026 392.402 58.9885 263.538 4.1664 154.083Z" fill="#D9D9D9"/>
<path d="M589 340H655V374C628.5 374.5 597.5 365.5 589 358V340Z" fill="#EC3750"/>
</svg>
